<svg xmlns="http://www.w3.org/2000/svg" width="16" height="17" viewBox="0 0 16 17" fill="none">

    <g id="discord">
        <svg xmlns="http://www.w3.org/2000/svg" width="32" height="32" viewBox="0 0 32 32" fill="none">
            <path d="M24.1641 7.65906C22.543 6.87826 20.8325 6.32099 19.0751 6.00114C19.0592 5.99832 19.0428 6.00076 19.0283 6.0081C19.0137 6.01544 19.0017 6.02733 18.9938 6.04214C18.7735 6.45211 18.5298 6.98835 18.3595 7.40816C16.4651 7.10643 14.5383 7.10643 12.6439 7.40816C12.4539 6.9405 12.239 6.48443 12.0002 6.04214C11.9922 6.02749 11.9801 6.01574 11.9656 6.00842C11.9511 6.0011 11.9348 5.99856 11.9189 6.00114C10.1611 6.31928 8.45021 6.87684 6.82991 7.65906C6.81605 7.66461 6.80445 7.67504 6.7971 7.68858C3.55651 12.7706 2.66745 17.7279 3.10339 22.623C3.10495 22.6459 3.11901 22.6689 3.1362 22.6836C5.02325 24.1507 7.13396 25.2708 9.37832 25.9962C9.39417 26.0014 9.4112 26.0013 9.42693 25.9957C9.44267 25.99 9.45629 25.9793 9.46582 25.965C9.94707 25.2763 10.3752 24.5498 10.7439 23.7856C10.7516 23.7699 10.7543 23.752 10.7514 23.7345C10.7486 23.7171 10.7405 23.7011 10.7283 23.6889C10.7202 23.6809 10.7107 23.6747 10.7002 23.6708C10.027 23.3993 9.37503 23.0731 8.7502 22.6951C8.73275 22.6847 8.71977 22.6677 8.71395 22.6476C8.70814 22.6274 8.70993 22.6057 8.71895 22.5869C8.72427 22.5747 8.73231 22.564 8.74239 22.5557C8.87364 22.4524 9.00489 22.3442 9.12989 22.236C9.14093 22.2266 9.15418 22.2206 9.16821 22.2186C9.18225 22.2166 9.19655 22.2186 9.20957 22.2245C13.3017 24.1858 17.7314 24.1858 21.7735 22.2245C21.787 22.2183 21.8018 22.2162 21.8164 22.2182C21.831 22.2202 21.8448 22.2264 21.8563 22.236C21.9813 22.3442 22.1126 22.4524 22.2438 22.5557C22.2544 22.5639 22.263 22.5747 22.2687 22.5872C22.2744 22.5996 22.277 22.6134 22.2764 22.6272C22.2758 22.641 22.2719 22.6544 22.2651 22.6663C22.2584 22.6781 22.2489 22.688 22.2376 22.6951C21.6142 23.0765 20.9614 23.4024 20.286 23.6692C20.2752 23.6733 20.2655 23.6798 20.2574 23.6883C20.2493 23.6968 20.243 23.7071 20.2391 23.7184C20.2355 23.7294 20.2341 23.741 20.2349 23.7525C20.2357 23.7641 20.2387 23.7754 20.2438 23.7856C20.6188 24.5482 21.0485 25.2763 21.5204 25.965C21.5299 25.9793 21.5435 25.99 21.5593 25.9957C21.575 26.0013 21.592 26.0014 21.6079 25.9962C23.856 25.2731 25.9701 24.1528 27.8594 22.6836C27.8688 22.6768 27.8767 22.6677 27.8824 22.6572C27.8881 22.6467 27.8914 22.635 27.8922 22.623C28.4141 16.9637 27.0188 12.0474 24.1954 7.69022C24.1925 7.68302 24.1883 7.67653 24.1829 7.67116C24.1775 7.66579 24.1711 7.66167 24.1641 7.65906ZM11.3549 19.6417C10.1221 19.6417 9.10801 18.4544 9.10801 16.9982C9.10801 15.5403 10.1033 14.353 11.3549 14.353C12.6158 14.353 13.6205 15.5502 13.6017 16.9982C13.6017 18.4544 12.6064 19.6417 11.3549 19.6417ZM19.661 19.6417C18.4298 19.6417 17.4142 18.4544 17.4142 16.9982C17.4142 15.5403 18.4095 14.353 19.661 14.353C20.922 14.353 21.9282 15.5502 21.9079 16.9982C21.9079 18.4544 20.922 19.6417 19.661 19.6417Z"
                  fill="#ABB2BF"/>
        </svg>
    </g>

    <g id="figma">
        <svg xmlns="http://www.w3.org/2000/svg" width="32" height="32" viewBox="0 0 32 32" fill="none">
            <path d="M16 16C16 15.1159 16.3687 14.2681 17.0251 13.643C17.6815 13.0179 18.5717 12.6667 19.5 12.6667C20.4283 12.6667 21.3185 13.0179 21.9749 13.643C22.6313 14.2681 23 15.1159 23 16C23 16.8841 22.6313 17.7319 21.9749 18.357C21.3185 18.9821 20.4283 19.3333 19.5 19.3333C18.5717 19.3333 17.6815 18.9821 17.0251 18.357C16.3687 17.7319 16 16.8841 16 16ZM9 22.6667C9 21.7826 9.36875 20.9348 10.0251 20.3096C10.6815 19.6845 11.5717 19.3333 12.5 19.3333H16V22.6667C16 23.5507 15.6313 24.3986 14.9749 25.0237C14.3185 25.6488 13.4283 26 12.5 26C11.5717 26 10.6815 25.6488 10.0251 25.0237C9.36875 24.3986 9 23.5507 9 22.6667ZM16 6V12.6667H19.5C20.4283 12.6667 21.3185 12.3155 21.9749 11.6904C22.6313 11.0652 23 10.2174 23 9.33333C23 8.44928 22.6313 7.60143 21.9749 6.97631C21.3185 6.35119 20.4283 6 19.5 6H16ZM9 9.33333C9 10.2174 9.36875 11.0652 10.0251 11.6904C10.6815 12.3155 11.5717 12.6667 12.5 12.6667H16V6H12.5C11.5717 6 10.6815 6.35119 10.0251 6.97631C9.36875 7.60143 9 8.44928 9 9.33333ZM9 16C9 16.8841 9.36875 17.7319 10.0251 18.357C10.6815 18.9821 11.5717 19.3333 12.5 19.3333H16V12.6667H12.5C11.5717 12.6667 10.6815 13.0179 10.0251 13.643C9.36875 14.2681 9 15.1159 9 16Z"
                  fill="#ABB2BF"/>
        </svg>
    </g>

    <g id="logo_outlined">
        <svg xmlns="http://www.w3.org/2000/svg" width="156" height="156" viewBox="0 0 156 156" fill="none">
            <mask id="path-1-inside-1_1103_3692" fill="white">
                <path fill-rule="evenodd" clip-rule="evenodd"
                      d="M0 39.75H38.75H77.5V78.5H38.75V117.25H77.5V156H38.75H0V117.25V78.5V39.75Z"/>
            </mask>
            <path d="M0 39.75V38.75H-1V39.75H0ZM77.5 39.75H78.5V38.75H77.5V39.75ZM77.5 78.5V79.5H78.5V78.5H77.5ZM38.75 78.5V77.5H37.75V78.5H38.75ZM38.75 117.25H37.75V118.25H38.75V117.25ZM77.5 117.25H78.5V116.25H77.5V117.25ZM77.5 156V157H78.5V156H77.5ZM0 156H-1V157H0V156ZM38.75 38.75H0V40.75H38.75V38.75ZM77.5 38.75H38.75V40.75H77.5V38.75ZM78.5 78.5V39.75H76.5V78.5H78.5ZM38.75 79.5H77.5V77.5H38.75V79.5ZM39.75 117.25V78.5H37.75V117.25H39.75ZM38.75 118.25H77.5V116.25H38.75V118.25ZM76.5 117.25V156H78.5V117.25H76.5ZM77.5 155H38.75V157H77.5V155ZM0 157H38.75V155H0V157ZM-1 117.25V156H1V117.25H-1ZM-1 78.5V117.25H1V78.5H-1ZM-1 39.75V78.5H1V39.75H-1Z"
                  fill="#C778DD" mask="url(#path-1-inside-1_1103_3692)"/>
            <mask id="path-3-outside-2_1103_3692" maskUnits="userSpaceOnUse" x="76.5" y="0" width="80" height="119"
                  fill="black">
                <rect fill="white" x="76.5" width="80" height="119"/>
                <path fill-rule="evenodd" clip-rule="evenodd"
                      d="M77.5 1H116.25H155V39.75V78.5V117.25H116.25H77.5V78.5H116.25V39.75H77.5V1Z"/>
            </mask>
            <path d="M77.5 1V0H76.5V1H77.5ZM155 1H156V0H155V1ZM155 117.25V118.25H156V117.25H155ZM77.5 117.25H76.5V118.25H77.5V117.25ZM77.5 78.5V77.5H76.5V78.5H77.5ZM116.25 78.5V79.5H117.25V78.5H116.25ZM116.25 39.75H117.25V38.75H116.25V39.75ZM77.5 39.75H76.5V40.75H77.5V39.75ZM116.25 0H77.5V2H116.25V0ZM155 0H116.25V2H155V0ZM156 39.75V1H154V39.75H156ZM156 78.5V39.75H154V78.5H156ZM156 117.25V78.5H154V117.25H156ZM116.25 118.25H155V116.25H116.25V118.25ZM116.25 116.25H77.5V118.25H116.25V116.25ZM78.5 117.25V78.5H76.5V117.25H78.5ZM77.5 79.5H116.25V77.5H77.5V79.5ZM115.25 39.75V78.5H117.25V39.75H115.25ZM77.5 40.75H116.25V38.75H77.5V40.75ZM76.5 1V39.75H78.5V1H76.5Z"
                  fill="#C778DD" mask="url(#path-3-outside-2_1103_3692)"/>
        </svg>
    </g>

    <g id="logo">
        <path fill-rule="evenodd" clip-rule="evenodd"
              d="M12 0.5H8V4.5H4H0V8.5V12.5V16.5H4H8V12.5H12H16V8.5V4.5V0.5H12ZM4 12.5H8V8.5H12V4.5H8V8.5H4V12.5Z"
              fill="white"/>
    </g>

    <g id="arrowDown">
        <line x1="0.707107" y1="1.29289" x2="5.70711" y2="6.29289" stroke="#FFF" stroke-width="2"/>
        <line x1="4.29289" y1="6.29289" x2="9.29289" y2="1.29289" stroke="#FFF" stroke-width="2"/>
    </g>

    <g id="arrowUp">
        <line x1="9.29289" y1="5.70711" x2="4.29289" y2="0.707106" stroke="#FFF" stroke-width="2"/>
        <line x1="5.70711" y1="0.707107" x2="0.707106" y2="5.70711" stroke="#FFF" stroke-width="2"/>
    </g>

    <g id="typescript">
        <path d="M0 60V120H60H120V60V0H60H0V60Z" fill="#007ACC"/>
        <path d="M26.5374 60.3979L26.4993 65.3122H34.3088H42.1184L42.1184 87.5026V109.693H47.6422H53.166V87.5026L53.166 65.3122H60.9755H68.785V60.4931C68.785 57.8264 68.7279 55.5979 68.6517 55.5407C68.5946 55.4645 59.0898 55.4264 47.566 55.4455L26.5946 55.5026L26.5374 60.3979Z"
              fill="white"/>
        <path d="M96.8264 55.3636C99.874 56.1255 102.198 57.4779 104.331 59.6874C105.436 60.8684 107.074 63.0208 107.207 63.535C107.245 63.6874 102.026 67.1922 98.8644 69.1541C98.7502 69.2303 98.293 68.7351 97.7787 67.9731C96.2359 65.7255 94.6168 64.7541 92.1406 64.5827C88.5025 64.335 86.1597 66.2398 86.1787 69.4208C86.1787 70.3541 86.3121 70.9065 86.693 71.6684C87.493 73.3255 88.9787 74.316 93.6454 76.3351C102.236 80.0303 105.912 82.4684 108.198 85.935C110.75 89.8017 111.322 95.9731 109.588 100.564C107.683 105.554 102.96 108.945 96.3121 110.068C94.2549 110.43 89.3787 110.373 87.1692 109.973C82.3502 109.116 77.7787 106.735 74.9597 103.611C73.8549 102.392 71.7025 99.2112 71.8359 98.9827C71.893 98.9065 72.3883 98.6017 72.9406 98.2779C73.474 97.9731 75.493 96.8112 77.3978 95.7065L80.8454 93.7065L81.5692 94.7731C82.5787 96.316 84.7883 98.4303 86.1216 99.135C89.9502 101.154 95.2073 100.868 97.7978 98.5446C98.9025 97.535 99.3597 96.4874 99.3597 94.9446C99.3597 93.5541 99.1883 92.9446 98.4644 91.897C97.5311 90.5636 95.6263 89.4398 90.2168 87.097C84.0263 84.4303 81.3597 82.7731 78.9216 80.1446C77.5121 78.6208 76.1787 76.1827 75.6264 74.1446C75.1692 72.4493 75.0549 68.2017 75.4168 66.4874C76.693 60.5065 81.2073 56.335 87.7216 55.097C89.8359 54.697 94.7502 54.8493 96.8264 55.3636Z"
              fill="white"/>
    </g>

    <g id="redux">
        <g clip-path="url(#clip0_1_3276)">
            <path d="M83.1473 82.6013C87.5756 82.1428 90.9352 78.3253 90.7823 73.7438C90.63 69.1627 86.812 65.4975 82.2309 65.4975H81.9258C77.1914 65.6503 73.5267 69.6207 73.6795 74.3546C73.8323 76.6453 74.7483 78.6305 76.1227 80.0049C70.9308 90.2368 62.9902 97.7194 51.0792 103.98C42.9858 108.256 34.5872 109.784 26.1886 108.715C19.3167 107.798 13.972 104.745 10.612 99.7046C5.72578 92.2219 5.26781 84.128 9.39093 76.0346C12.2925 70.2314 16.8731 65.9555 19.7747 63.8175C19.1639 61.8324 18.2475 58.4728 17.7895 56.0297C-4.35282 72.0643 -2.06204 93.7491 4.65703 103.98C9.69609 111.616 19.9275 116.35 31.2276 116.35C34.2816 116.35 37.3355 116.045 40.3898 115.282C59.9362 111.464 74.7487 99.8574 83.1473 82.6013ZM110.024 63.6652C98.4178 50.0738 81.315 42.5911 61.7686 42.5911H59.3255C57.9511 39.8424 55.0495 38.0096 51.8428 38.0096H51.5372C46.8037 38.1624 43.1391 42.1327 43.2914 46.8671C43.4442 51.4482 47.2617 55.1133 51.8428 55.1133H52.148C55.5075 54.9605 58.4091 52.8225 59.6306 49.921H62.3794C73.9852 49.921 84.9797 53.2805 94.9059 59.8472C102.541 64.8868 108.038 71.4535 111.092 79.3941C113.688 85.808 113.535 92.0691 110.787 97.4143C106.511 105.508 99.3342 109.936 89.8664 109.936C83.7581 109.936 77.9555 108.104 74.9011 106.729C73.2216 108.256 70.1672 110.7 68.0292 112.227C74.5959 115.281 81.315 116.961 87.7284 116.961C102.388 116.961 113.23 108.867 117.353 100.774C121.782 91.9163 121.476 76.6453 110.024 63.6652ZM32.4492 85.1968C32.602 89.7783 36.4195 93.443 41.0006 93.443H41.3062C46.0401 93.2907 49.7048 89.3199 49.552 84.586C49.3997 80.0044 45.5817 76.3397 41.0006 76.3397H40.6955C40.3898 76.3397 39.9314 76.3397 39.6267 76.4921C33.3656 66.1078 30.7697 54.8077 31.6861 42.5907C32.2964 33.428 35.3508 25.4869 40.6955 18.9202C45.1237 13.2699 53.6751 10.5211 59.4783 10.3688C75.6647 10.0632 82.5361 30.2208 82.9945 38.3147C84.9797 38.7727 88.3392 39.8419 90.63 40.6055C88.7972 15.8668 73.5267 3.03894 58.8675 3.03894C45.1237 3.03894 32.4492 12.9652 27.4097 27.6253C20.3855 47.1722 24.9666 65.9555 33.518 80.7685C32.7548 81.8372 32.2964 83.5172 32.4492 85.1972V85.1968Z"
                  fill="#764ABC"/>
        </g>
        <defs>
            <clipPath id="clip0_1_3276">
                <rect width="120" height="120" fill="white"/>
            </clipPath>
        </defs>
    </g>

    <g id="github">
        <svg xmlns="http://www.w3.org/2000/svg" width="32" height="32" viewBox="0 0 32 32" fill="none">
            <path d="M15.5 6C9.69875 6 5 10.5882 5 16.2529C5 20.7899 8.00562 24.6219 12.1794 25.9804C12.7044 26.0701 12.9012 25.7625 12.9012 25.4934C12.9012 25.2499 12.8881 24.4425 12.8881 23.5838C10.25 24.058 9.5675 22.9558 9.3575 22.3791C9.23938 22.0843 8.7275 21.1743 8.28125 20.9308C7.91375 20.7386 7.38875 20.2644 8.26813 20.2516C9.095 20.2388 9.68563 20.9949 9.8825 21.3025C10.8275 22.8533 12.3369 22.4175 12.9406 22.1484C13.0325 21.4819 13.3081 21.0334 13.61 20.777C11.2737 20.5207 8.8325 19.6364 8.8325 15.7147C8.8325 14.5997 9.23938 13.6769 9.90875 12.9592C9.80375 12.7029 9.43625 11.6519 10.0138 10.2422C10.0138 10.2422 10.8931 9.97301 12.9012 11.2931C13.7413 11.0624 14.6338 10.947 15.5263 10.947C16.4188 10.947 17.3113 11.0624 18.1513 11.2931C20.1594 9.9602 21.0387 10.2422 21.0387 10.2422C21.6163 11.6519 21.2488 12.7029 21.1438 12.9592C21.8131 13.6769 22.22 14.5868 22.22 15.7147C22.22 19.6492 19.7656 20.5207 17.4294 20.777C17.81 21.0975 18.1381 21.7126 18.1381 22.6738C18.1381 24.0452 18.125 25.1474 18.125 25.4934C18.125 25.7625 18.3219 26.0829 18.8469 25.9804C20.9314 25.2935 22.7428 23.9854 24.026 22.2403C25.3092 20.4953 25.9996 18.4012 26 16.2529C26 10.5882 21.3013 6 15.5 6Z"
                  fill="#ABB2BF"/>
        </svg>
    </g>


    <g id="react">
        <path d="M0 59.7974C0 69.273 8.84919 78.1189 22.8007 83.1049C20.0147 97.7701 22.3014 109.59 29.9391 114.196C37.79 118.93 49.4858 115.653 60.5867 105.507C71.4076 115.243 82.3439 119.075 89.9746 114.456C97.8178 109.709 100.203 97.087 97.3404 81.964C111.872 76.9405 120 69.3977 120 59.7974C120 50.5414 111.134 42.5338 97.3711 37.5796C100.453 21.8316 97.8416 10.2984 89.8877 5.50237C82.2193 0.878721 71.156 4.9087 60.176 14.9001C48.7532 4.29502 37.799 1.05714 29.8528 5.86712C22.1918 10.5039 20.0057 22.5388 22.8007 37.4756C9.32028 42.39 0 50.5784 0 59.7974Z"
              fill="white"/>
        <path d="M94.4565 42.4992C93.351 42.1013 92.2054 41.7248 91.0259 41.3688C91.2198 40.5415 91.3977 39.7249 91.5559 38.9222C94.1528 25.7415 92.4549 15.1231 86.6569 11.627C81.0973 8.27476 72.005 11.77 62.8223 20.1259C61.9393 20.9294 61.0538 21.7801 60.1687 22.6717C59.5789 22.0818 58.9901 21.5118 58.4028 20.9665C48.779 12.0318 39.1327 8.26663 33.3404 11.7728C27.7861 15.1348 26.1413 25.1171 28.4789 37.6085C28.7046 38.8151 28.9685 40.0472 29.2669 41.3C27.9016 41.7052 26.5836 42.1372 25.3226 42.5967C14.0397 46.7099 6.83398 53.1561 6.83398 59.8425C6.83398 66.7483 14.5693 73.675 26.3213 77.875C27.2487 78.2064 28.211 78.5198 29.2028 78.8173C28.8808 80.1722 28.6009 81.4999 28.3658 82.7949C26.1369 95.0696 27.8776 104.816 33.417 108.157C39.1388 111.607 48.7415 108.061 58.0921 99.5143C58.8311 98.8387 59.5729 98.1223 60.3159 97.3714C61.279 98.3411 62.2405 99.2588 63.197 100.12C72.2541 108.269 81.1995 111.56 86.7339 108.21C92.4499 104.75 94.3076 94.2798 91.8958 81.5412C91.7116 80.5683 91.4973 79.5744 91.2566 78.5628C91.9309 78.3544 92.593 78.1392 93.2385 77.9154C105.456 73.6829 113.405 66.8406 113.405 59.8425C113.405 53.1319 105.967 46.6422 94.4565 42.4992Z"
              fill="#53C1DE"/>
        <path d="M91.8052 73.3972C91.2225 73.599 90.6246 73.7939 90.0153 73.9829C88.6665 69.5184 86.8462 64.771 84.6187 59.8661C86.7444 55.078 88.4943 50.3913 89.8053 45.9557C90.8955 46.2855 91.9536 46.6334 92.9732 47.0006C102.835 50.5504 108.851 55.7988 108.851 59.8429C108.851 64.1505 102.354 69.7425 91.8052 73.3972ZM87.4282 82.466C88.4947 88.0988 88.647 93.1916 87.9406 97.1728C87.3059 100.75 86.0294 103.135 84.4512 104.09C81.0926 106.123 73.9104 103.481 66.1646 96.5115C65.2766 95.7125 64.3822 94.8595 63.485 93.9566C66.4878 90.5226 69.489 86.5305 72.4181 82.0969C77.57 81.6189 82.4374 80.8374 86.8514 79.7705C87.0688 80.6874 87.2619 81.5867 87.4282 82.466ZM43.1649 103.739C39.8836 104.951 37.2702 104.986 35.6904 104.033C32.3288 102.006 30.9313 94.1803 32.8376 83.6831C33.0559 82.4809 33.3158 81.246 33.6153 79.9837C37.9809 80.9931 42.8126 81.7194 47.9769 82.1572C50.9257 86.4956 54.0135 90.4834 57.1253 93.975C56.4454 94.6613 55.7682 95.3147 55.0948 95.9303C50.96 99.7094 46.8165 102.391 43.1649 103.739ZM27.7923 73.3709C22.5958 71.5137 18.3043 69.1001 15.3627 66.4662C12.7195 64.0994 11.385 61.7496 11.385 59.8429C11.385 55.7853 17.1705 50.6099 26.8197 47.0922C27.9905 46.6654 29.2161 46.2631 30.488 45.8853C31.8216 50.421 33.5709 55.1633 35.682 59.9587C33.5436 64.8253 31.7694 69.6431 30.4228 74.2321C29.516 73.9595 28.6375 73.6727 27.7923 73.3709ZM32.9453 36.6947C30.9425 25.9923 32.2726 17.9189 35.6198 15.893C39.1851 13.7348 47.069 16.8119 55.3784 24.5266C55.9095 25.0197 56.4428 25.5358 56.9775 26.0697C53.8811 29.5461 50.8215 33.5039 47.8989 37.8167C42.8868 38.3025 38.0891 39.0828 33.6779 40.1277C33.4006 38.9612 33.1549 37.8152 32.9453 36.6947ZM78.9151 48.5635C77.8606 46.659 76.778 44.7995 75.6744 42.9908C79.0746 43.4402 82.3325 44.0369 85.3919 44.767C84.4734 47.8449 83.3285 51.0631 81.981 54.3622C81.0143 52.4432 79.9918 50.5083 78.9151 48.5635ZM60.1687 29.4717C62.2687 31.8505 64.3716 34.5063 66.44 37.3879C64.3557 37.285 62.2455 37.2314 60.1179 37.2314C58.0104 37.2314 55.9158 37.2838 53.8443 37.3849C55.9148 34.5301 58.036 31.8779 60.1687 29.4717ZM41.3023 48.5965C40.2489 50.5063 39.2454 52.4307 38.2939 54.3586C36.9682 51.071 35.834 47.8382 34.9075 44.7166C37.9481 44.0051 41.1906 43.4234 44.5692 42.9825C43.45 44.8078 42.3585 46.681 41.3023 48.5961V48.5965ZM44.6665 77.0428C41.1758 76.6356 37.8846 76.0838 34.8447 75.392C35.786 72.2147 36.9452 68.9128 38.2991 65.5544C39.253 67.481 40.2605 69.4061 41.3203 71.3202H41.3205C42.4001 73.2701 43.5185 75.1802 44.6665 77.0428ZM60.2947 90.5496C58.1369 88.1153 55.9846 85.4226 53.8826 82.5261C55.9232 82.6098 58.0036 82.6527 60.1179 82.6527C62.2901 82.6527 64.4374 82.6015 66.551 82.5031C64.4758 85.4517 62.3804 88.1486 60.2947 90.5496ZM82.0244 65.3833C83.4488 68.778 84.6496 72.0626 85.603 75.1857C82.513 75.9228 79.1769 76.5164 75.6618 76.9575C76.7682 75.1244 77.8602 73.233 78.9333 71.2874C80.019 69.319 81.0497 67.3477 82.0244 65.3833ZM74.9898 68.9093C73.3239 71.9295 71.6136 74.8126 69.8773 77.5341C66.7149 77.7706 63.4478 77.8923 60.1179 77.8923C56.8015 77.8923 53.5755 77.7846 50.4691 77.5738C48.6628 74.8166 46.9154 71.9249 45.2601 68.9352H45.2605C43.6096 65.9537 42.0901 62.947 40.7133 59.9571C42.0897 56.9603 43.6052 53.9502 45.2466 50.974L45.2462 50.9746C46.892 47.9905 48.6241 45.1129 50.4137 42.3729C53.5831 42.1224 56.8332 41.9917 60.1177 41.9917H60.1179C63.4173 41.9917 66.6715 42.1234 69.8399 42.3761C71.6022 45.096 73.3225 47.9643 74.9748 50.9488C76.6458 53.9669 78.1808 56.9569 79.569 59.8895C78.185 62.8724 76.6534 65.8926 74.9898 68.9093ZM84.3813 15.7513C87.9501 17.9032 89.3379 26.5816 87.0957 37.9617C86.9527 38.6879 86.7916 39.4275 86.6167 40.1771C82.1953 39.1104 77.3941 38.3166 72.3674 37.8235C69.4391 33.4632 66.4046 29.4993 63.3586 26.0675C64.1776 25.2438 64.9953 24.4583 65.8097 23.7171C73.6775 16.5578 81.031 13.7312 84.3813 15.7513Z"
              fill="white"/>
        <path d="M60.1182 49.8923C65.3739 49.8923 69.6346 54.3472 69.6346 59.8428C69.6346 65.3381 65.3739 69.7932 60.1182 69.7932C54.8625 69.7932 50.6018 65.3381 50.6018 59.8428C50.6018 54.3472 54.8625 49.8923 60.1182 49.8923Z"
              fill="#53C1DE"/>
    </g>

    <g id="tailwind">
        <path d="M36.8438 56.0844C40.6646 40.801 50.2167 33.1594 65.5 33.1594C88.425 33.1594 91.2906 50.3531 102.753 53.2187C110.395 55.1292 117.081 52.2635 122.812 44.6219C118.992 59.9052 109.44 67.5469 94.1562 67.5469C71.2313 67.5469 68.3656 50.3531 56.9031 47.4875C49.2615 45.5771 42.575 48.4427 36.8438 56.0844ZM8.1875 90.4719C12.0083 75.1885 21.5604 67.5469 36.8438 67.5469C59.7687 67.5469 62.6344 84.7406 74.0969 87.6062C81.7385 89.5167 88.425 86.651 94.1562 79.0094C90.3354 94.2927 80.7833 101.934 65.5 101.934C42.575 101.934 39.7094 84.7406 28.2469 81.875C20.6052 79.9646 13.9187 82.8302 8.1875 90.4719Z"
              fill="#44A8B3"/>
    </g>
</svg>